<?xml version="1.0" encoding="UTF-8"?>
<svg width="176px" height="22px" viewBox="0 0 176 22" version="1.1" xmlns="http://www.w3.org/2000/svg" xmlns:xlink="http://www.w3.org/1999/xlink">
    <!-- Generator: Sketch 53.2 (72643) - https://sketchapp.com -->
    <title>vesper-wordmark</title>
    <desc>Created with Sketch.</desc>
    <g id="vesper-wordmark" stroke="none" stroke-width="1" fill="none" fill-rule="evenodd">
        <polygon id="Fill-1" fill="#231F20" points="125.7903 0 125.7903 7.627 125.8003 11.813 125.8003 20.589 142.4463 20.589 142.4463 16.245 130.0873 16.245 130.0873 11.804 140.4323 11.804 140.4323 7.613 130.0933 7.613 130.0933 4.243 142.4493 4.243 142.4493 0"></polygon>
        <polygon id="Fill-2" fill="#231F20" points="34.4808 0.0054 34.4808 7.6244 34.4858 11.8114 34.4858 20.5914 51.1348 20.5914 51.1348 16.2474 38.7738 16.2474 38.7738 11.8174 49.1198 11.8174 49.1198 7.6144 38.7788 7.6144 38.7788 4.2354 51.1268 4.2354 51.1268 0.0054"></polygon>
        <path d="M161.3419,15.2916 L161.3419,20.6126 L157.0819,20.6126 L157.0819,0.0236 L157.3699,0.0236 C160.9239,0.0246 164.4779,0.0186 168.0319,0.0306 C169.3199,0.0346 170.5979,0.1526 171.8249,0.5876 C173.7129,1.2566 174.7949,2.6156 175.1629,4.5586 C175.3159,5.3666 175.4319,6.1896 175.2559,7.0086 C175.0549,7.9456 174.5039,8.6846 173.8389,9.3446 C172.6699,10.5056 171.2699,11.3286 169.8219,12.0816 C169.6669,12.1616 169.5119,12.2416 169.3319,12.3346 C171.4619,15.0246 173.7949,17.8956 175.9359,20.5996 L175.9009,20.6256 L171.0069,20.6256 C170.8629,20.4406 170.5079,20.0646 170.3639,19.8796 C168.8359,17.9276 167.3109,15.9746 165.7779,14.0276 C165.7259,13.9616 165.5859,13.9006 165.5159,13.9236 C164.1299,14.3696 162.7479,14.8276 161.3419,15.2916 Z M161.3519,4.4046 L161.3519,10.9036 C161.6129,10.8276 161.8509,10.7616 162.0889,10.6906 C164.4029,9.9946 166.7069,9.2716 168.8799,8.1956 C169.5689,7.8546 170.2409,7.4836 170.7889,6.9296 C171.0209,6.6956 171.2059,6.4256 171.2059,6.0806 C171.2039,5.3256 170.6679,4.6306 169.9169,4.4776 C169.5259,4.3966 169.1119,4.4086 168.7069,4.4076 C166.3679,4.4016 164.0269,4.4046 161.6859,4.4046 L161.3519,4.4046 Z" id="r" fill="#231F20"></path>
        <path d="M98.5049,20.3016 L98.5049,20.6156 L94.2199,20.6156 L94.2199,0.0236 L94.4869,0.0236 C98.0779,0.0246 101.6679,0.0176 105.2579,0.0306 C106.4429,0.0356 107.6189,0.1516 108.7589,0.5116 C110.8129,1.1616 111.9979,2.5746 112.3359,4.6756 C112.4539,5.3986 112.4919,6.1536 112.4229,6.8806 C112.3369,7.7946 111.7889,8.5206 111.1679,9.1736 C110.1439,10.2536 108.9069,11.0436 107.6049,11.7386 C104.8499,13.2096 101.9219,14.2436 98.9379,15.1316 C98.5059,15.2596 98.5049,15.2576 98.5049,15.6936 L98.5049,20.3016 Z M98.5199,4.4046 L98.5199,10.9126 C99.3319,10.6646 100.1089,10.4356 100.8799,10.1886 C102.8659,9.5516 104.8379,8.8816 106.6679,7.8596 C107.1939,7.5666 107.7009,7.2446 108.0889,6.7696 C108.2999,6.5126 108.3949,6.2286 108.3509,5.8956 C108.2579,5.2036 107.7709,4.6146 107.0879,4.4776 C106.6959,4.3996 106.2829,4.4086 105.8789,4.4076 C103.5389,4.4016 101.1989,4.4046 98.8579,4.4046 L98.5199,4.4046 Z" id="p" fill="#231F20"></path>
        <path d="M74.4755,16.8812 C74.0465,16.9632 73.5865,16.9952 73.1565,16.9332 C71.7495,16.7302 70.4515,16.2002 69.2515,15.4492 C68.6835,15.0932 68.1605,14.6662 67.5955,14.2552 C66.6875,15.2552 65.7595,16.2782 64.8315,17.3012 C64.8825,17.3602 64.9045,17.3902 64.9315,17.4162 C67.4655,19.9052 70.4725,21.2302 74.0615,21.0782 C75.9985,20.9962 77.6375,20.2802 78.9135,18.7692 C80.0955,17.3702 80.6105,15.8032 80.0515,14.0372 C79.5685,12.5122 78.4875,11.4002 77.1675,10.5232 C75.8955,9.6792 74.5445,8.9802 73.1795,8.2982 C72.3845,7.9002 71.6445,7.3802 70.9075,6.8772 C70.5495,6.6322 70.3255,6.2562 70.3035,5.7992 C70.2655,5.0452 70.7735,4.4272 71.6015,4.1912 C72.7515,3.8632 73.8485,4.0362 74.9195,4.5102 C75.7405,4.8742 76.4545,5.3932 77.1095,6.0162 C78.0345,5.1182 78.9505,4.2302 79.9095,3.3002 C79.5045,2.9242 79.1425,2.5542 78.7455,2.2242 C76.0195,-0.0398 72.9295,-0.5088 69.6105,0.5222 C67.9725,1.0312 66.8655,2.2532 66.0665,3.7422 C65.7475,4.3382 65.6215,5.0022 65.6575,5.6732 C65.7555,7.4832 66.4525,9.0192 67.9205,10.1172 C69.4755,11.2802 71.1365,12.2762 72.9085,13.0912 C73.6565,13.4362 74.3635,13.8942 75.0355,14.3752 C75.4935,14.7032 75.7365,15.2032 75.5875,15.8132 C75.4425,16.4072 75.0495,16.7722 74.4755,16.8812" id="Fill-7" fill="#231F20"></path>
        <path d="M20.0111,0.0238 L19.6551,0.0238 C18.1741,0.0238 16.6921,0.0298 15.2111,0.0178 C14.9721,0.0158 14.8611,0.0818 14.7701,0.3068 C13.3311,3.8648 11.8821,7.4188 10.4361,10.9728 C10.2911,11.3288 10.1451,11.6848 9.9791,12.0898 C9.9271,11.9648 9.8951,11.8938 9.8661,11.8218 C8.3341,7.9738 6.8001,4.1268 5.2751,0.2748 C5.1971,0.0778 5.1041,0.0168 4.8961,0.0178 C3.8321,0.0228 2.7671,0.0088 1.7031,0.0028 C1.1571,0.0008 0.6121,0.0028 0.0001,0.0028 C3.3201,7.2408 6.6221,14.4398 9.9471,21.6878 C13.3141,14.4408 16.6551,7.2478 20.0111,0.0238" id="Fill-9" fill="#231F20"></path>
    </g>
</svg>